<svg width="61" height="48" viewBox="0 0 61 48" fill="none" xmlns="http://www.w3.org/2000/svg">
<path d="M10.95 44.45C10.65 44.2 10.35 44.15 10.1 44.15C9.85 44.15 9.65 44.2 9.4 44.2H8.85C8.5 44.2 8.15 44.15 7.95 43.8C7.9 43.7 7.85 43.55 7.85 43.45C7.85 43.1 8.2 42.85 8.45 42.6C8.5 42.5 8.5 42.4 8.6 42.2C7.95 42 7.75 41.6 7.75 41.1C7.75 40.8 7.8 40.5 7.9 40.15C8.25 38.45 9.05 37.35 10.85 36.75C15.05 35.3 18.65 32.8 22.05 29.9C23.3 28.8 24.55 27.65 25.7 26.5C25.95 26.25 26.1 26.05 26.1 25.85C26.1 25.6 25.85 25.45 25.3 25.35C22.95 24.95 20.6 24.7 18.3 24.7C15.4 24.7 12.5 25.1 9.7 26.25C8.3 26.85 6.95 27.55 5.7 28.45C4.95 29 4.25 29.6 4.05 30.6C3.9 31.45 3.1 31.95 2.75 32.7C2.6 33 2.3 33.15 1.95 33.15C1.8 33.15 1.6 33.1 1.45 33.05C0.8 32.85 0.3 32.35 0.15 31.65C0.1 31.15 0.05 30.65 0.05 30.15C0.05 29.5 0.1 28.85 0.25 28.2C1.05 24.4 3.15 21.7 6.85 20.2C9.65 19.05 12.5 18.6 15.4 18.6C17.1 18.6 18.8 18.75 20.55 19.05C20.9 19.1 21.3 19.2 21.55 19.5C21.75 19.85 22.15 19.95 22.5 20C24.35 20.2 26.1 21 27.85 21.6C28.3 21.75 28.65 21.8 29.05 21.8C29.9 21.8 30.6 21.45 31.3 20.6C35.4 15.55 39.25 10.35 42.6 4.8C43.35 3.55 44.2 2.4 44.95 1.25C45.55 0.349998 46.3 -5.96046e-07 47 -5.96046e-07C48.05 -5.96046e-07 49.1 0.749999 49.6 1.7C50.7 3.85 51.25 6.1 51.25 8.5V9.1C51.15 12.75 50.8 16.45 50.8 20.1V22.75C50.8 23.95 50.8 24.4 51.4 24.4C51.65 24.4 52.05 24.3 52.65 24.15C52.65 24.45 52.4 24.65 52.2 24.75C50.95 25.4 50.75 26.45 50.75 27.75C50.85 30.8 51.15 33.85 51.75 36.8C52.1 38.65 52.85 40.3 54.05 41.75C54.85 42.7 55.7 43.2 56.55 43.2C57.35 43.2 58.2 42.8 59 41.95C59.6 41.35 60.1 40.65 60.75 40.05C60.45 42.1 59.7 43.95 58.1 45.35C57.45 45.9 56.75 46.15 56.05 46.15C55.4 46.15 54.8 45.95 54.15 45.65C53.1 45.1 52.35 44.25 51.6 43.35C50.45 41.9 49.65 40.25 49.1 38.45C48.15 35.45 47.5 32.4 47 29.3C46.9 28.95 46.85 28.6 46.8 28.2C46.55 27.35 46.45 27.1 45.8 27.1C45.65 27.1 45.45 27.15 45.25 27.15C43.75 27.25 42.2 27.35 40.65 27.35C39.5 27.35 38.3 27.3 37.1 27.2H36.9C35.95 27.2 35.3 27.55 34.7 28.3C32.3 31.25 29.9 34.15 27.35 36.9C24.95 39.5 22.45 41.95 19.6 44C17.3 45.6 14.9 46.9 12.1 47.5C11.8 47.55 11.45 47.6 11.15 47.6C10.55 47.6 9.95 47.45 9.35 47.2C8.9 47 8.5 46.7 8.5 46.2V46.05C8.55 45.45 9.05 45.35 9.5 45.15C9.95 44.95 10.55 45.1 10.95 44.45ZM45.45 14.85C45.35 14.85 45.2 14.85 45.15 14.95C42.85 17.7 40.7 20.6 38.55 23.5C38.4 23.7 38.3 23.9 38.3 24.05C38.3 24.35 38.55 24.5 39.15 24.65C41 24.95 42.9 25.2 44.75 25.2C45.85 25.2 46.25 25 46.25 24.15C46.25 24 46.2 23.8 46.2 23.6C46 21.1 46 18.6 45.9 16.1C45.85 15.65 45.95 15.1 45.45 14.85Z" fill="black"/>
</svg>
